<svg width="20" height="19" viewBox="0 0 20 19" fill="none" xmlns="http://www.w3.org/2000/svg">
<path d="M10.9993 15.0004C10.9993 14.4489 10.5522 14.0018 10.0006 14.0018C9.4491 14.0018 9.002 14.4489 9.002 15.0004C9.002 15.552 9.4491 15.9991 10.0006 15.9991C10.5522 15.9991 10.9993 15.552 10.9993 15.0004ZM10.7401 7.14719C10.6901 6.78115 10.3761 6.49925 9.9964 6.49955C9.5822 6.49988 9.2467 6.83594 9.247 7.25015L9.2506 11.7517L9.2575 11.8535C9.3075 12.2195 9.6215 12.5014 10.0012 12.5011C10.4154 12.5008 10.7509 12.1648 10.7506 11.7505L10.747 7.24895L10.7401 7.14719ZM11.9693 1.65937C11.113 0.111571 8.8878 0.111591 8.0316 1.65942L0.286338 15.6609C-0.543222 17.1605 0.541398 19 2.25518 19H17.7462C19.46 19 20.5446 17.1605 19.715 15.6608L11.9693 1.65937ZM9.3442 2.3855C9.6296 1.86956 10.3713 1.86954 10.6567 2.38548L18.4025 16.3869C18.679 16.8868 18.3175 17.5 17.7462 17.5H2.25518C1.68392 17.5 1.32238 16.8868 1.5989 16.387L9.3442 2.3855Z" fill="white"/>
</svg>
